M48
; DRILL file KiCad 10.0.5 date 2026-08-02T12:53:43
; FORMAT={-:-/ absolute / metric / decimal}
; #@! TF.CreationDate,2026-08-02T12:53:43+02:00
; #@! TF.GenerationSoftware,Kicad,Pcbnew,10.0.5
; #@! TF.FileFunction,Plated,1,2,PTH
FMAT,2
METRIC
; #@! TA.AperFunction,Plated,PTH,ComponentDrill
T1C0.900
; #@! TA.AperFunction,Plated,PTH,ComponentDrill
T2C1.000
%
G90
G05
T1
X134.92Y-92.75
X134.92Y-95.29
X134.92Y-97.83
X134.92Y-100.37
X134.92Y-102.91
X134.92Y-105.45
X134.92Y-107.99
X134.92Y-110.53
X134.92Y-113.07
X134.92Y-115.61
X134.92Y-118.15
X134.92Y-120.69
X134.92Y-123.23
X134.92Y-125.77
X134.92Y-128.31
X157.78Y-92.75
X157.78Y-95.29
X157.78Y-97.83
X157.78Y-100.37
X157.78Y-102.91
X157.78Y-105.45
X157.78Y-107.99
X157.78Y-110.53
X157.78Y-113.07
X157.78Y-115.61
X157.78Y-118.15
X157.78Y-120.69
X157.78Y-123.23
X157.78Y-125.77
X157.78Y-128.31
T2
X149.5Y-72.19
X149.5Y-74.73
X149.5Y-77.27
X149.5Y-79.81
X155.0Y-71.96
X155.0Y-74.5
X155.0Y-77.04
X155.0Y-79.58
X155.0Y-82.12
M30
